<svg fill="#000" width="35" height="35" viewBox="0 0 24 24" id="dark" data-name="Flat Line" xmlns="http://www.w3.org/2000/svg" class="icon flat-line" stroke="#000" transform="scale(-1 1)"><g id="SVGRepo_iconCarrier"><rect id="secondary" x="7" y="3" width="10" height="18" rx="1" style="fill:#f87719;stroke-width:2.4px"/><path id="primary" d="M17 12h4V6h-4Zm0 6h4v-6h-4Zm4 3V3M7 6H3v6h4Zm0 6H3v6h4Zm-4 9V3m10 9-2-1.5v3Zm3 9H8a1 1 0 0 1-1-1V4a1 1 0 0 1 1-1h8a1 1 0 0 1 1 1v16a1 1 0 0 1-1 1Z" style="fill:none;stroke:#111;stroke-linecap:round;stroke-linejoin:round;stroke-width:2.4px"/></g></svg>