
<svg fill="#000000" width="35px" height="35px" viewBox="0 0 24.00 24.00" id="film-movie-2" data-name="Flat Line" xmlns="http://www.w3.org/2000/svg" class="icon flat-line" stroke="#000000" transform="matrix(-1, 0, 0, 1, 0, 0)">

<g id="SVGRepo_bgCarrier" stroke-width="0"/>

<g id="SVGRepo_tracerCarrier" stroke-linecap="round" stroke-linejoin="round" stroke="#CCCCCC" stroke-width="0.048"/>

<g id="SVGRepo_iconCarrier">

<rect id="secondary" x="7" y="3" width="10" height="18" rx="1" style="fill: #F87719; stroke-width:2.4;"/>

<path id="primary" d="M17,12h4V6H17Zm0,6h4V12H17Zm4,3V3M7,6H3v6H7Zm0,6H3v6H7ZM3,21V3m10,9-2-1.5v3Zm3,9H8a1,1,0,0,1-1-1V4A1,1,0,0,1,8,3h8a1,1,0,0,1,1,1V20A1,1,0,0,1,16,21Z" style="fill: none; stroke: #111111; stroke-linecap: round; stroke-linejoin: round; stroke-width:2.4;"/>

</g>

</svg>